<svg xmlns="http://www.w3.org/2000/svg" viewBox="0 0 192.76 192.76"><defs><style>.cls-1,.cls-3{fill:#007ac2;}.cls-2{fill:#fff;}.cls-2,.cls-3{fill-rule:evenodd;}</style></defs><title>NCAA_200x200</title><g id="NCAA"><circle class="cls-1" cx="94.03" cy="95.38" r="93.82" transform="translate(-29.42 43.42) rotate(-22.58)"/><path class="cls-2" d="M117.78,121.94l9.38-14.25.5,14.25Zm37.58-.2,9.37-14.2.48,14.2Zm24.2,17.17-3-44.39H152.21l-2.87,10.14h3.77l-12,19-1.69-29.18H114.76l-2.8,10.1,3.76,0L99.61,129.1l-13.26,0c-1.39,0-6.74-1.29-6.74-7.93s6.32-16.28,12.74-16.28l2.69.06c-.45,1.64-1.4,5-1.4,5h11.81l4.25-15.42-18.26-.06C80.78,94.36,71,102.59,68.15,111l4.74-16.42H56.68l-2.85,10.14,4.19,0L53.8,119.49,43.22,94.58H28.05l-2.84,10.09h4.16L20,138.89H32.09L38,117.56l8.82,21.33H60.27l6.18-21.73a30.05,30.05,0,0,0,0,10c1.19,7.12,8.12,11.77,15.68,11.77h24.49l4.2-6.37h17.28l.35,6.3h15.31l3.9-6.3h17.67l.69,6.37,13.55,0Z"/><path class="cls-3" d="M179.62,146.82a5.76,5.76,0,1,1,5.77,5.93,5.73,5.73,0,0,1-5.77-5.93Zm5.77,7.11a7.09,7.09,0,1,0-7.2-7.11,7.08,7.08,0,0,0,7.2,7.11Zm-1.5-6.54h1.43l2.15,3.54h1.39l-2.33-3.6a2.13,2.13,0,0,0,2.12-2.25c0-1.61-1-2.32-2.88-2.32h-3.12v8.17h1.24v-3.54Zm0-1v-2.53h1.69c.86,0,1.78.18,1.78,1.19,0,1.26-.94,1.34-2,1.34Z"/></g></svg>