<svg xmlns="http://www.w3.org/2000/svg" xmlns:xlink="http://www.w3.org/1999/xlink" viewBox="0 0 192.76 192.76"><defs><style>.cls-1{fill:#fff;}.cls-2{fill:#cfd2d3;}.cls-3{fill:url(#NHL_SHIELD_8_-_430);}.cls-4{fill:url(#NHL_SHIELD_7_-_430);}.cls-5{fill:url(#NHL_SHIELD_6_-_430);}.cls-6{fill:url(#NHL_SHIELD_5_-_430);}.cls-7{fill:url(#NHL_SHIELD_4_-_430);}.cls-8{fill:url(#NHL_SHIELD_3_-_430);}.cls-9{fill:url(#NHL_SHIELD_2_-_430);}.cls-10{fill:url(#NHL_SHIELD_1_-_430);}.cls-11{fill:#231f20;}</style><linearGradient id="NHL_SHIELD_8_-_430" x1="12206.24" y1="10706.1" x2="12280.47" y2="10706.1" gradientTransform="translate(-3345.91 -2860.7) scale(0.28)" gradientUnits="userSpaceOnUse"><stop offset="0.11" stop-color="#fff"/><stop offset="0.24" stop-color="#dddfe1"/><stop offset="0.44" stop-color="#a8afb3"/><stop offset="0.54" stop-color="#949ca1"/></linearGradient><linearGradient id="NHL_SHIELD_7_-_430" x1="169.95" y1="93.94" x2="169.95" y2="35.73" gradientUnits="userSpaceOnUse"><stop offset="0" stop-color="#fff"/><stop offset="0.35" stop-color="#fff"/><stop offset="0.56" stop-color="#949ca1"/><stop offset="1" stop-color="#949ca1"/></linearGradient><linearGradient id="NHL_SHIELD_6_-_430" x1="17.97" y1="160.58" x2="96.38" y2="160.58" gradientUnits="userSpaceOnUse"><stop offset="0.15" stop-color="#fff"/><stop offset="0.21" stop-color="#fafafa"/><stop offset="0.29" stop-color="#ebeced"/><stop offset="0.37" stop-color="#d2d5d7"/><stop offset="0.45" stop-color="#afb5b9"/><stop offset="0.51" stop-color="#949ca1"/></linearGradient><linearGradient id="NHL_SHIELD_5_-_430" x1="142.9" y1="156.62" x2="49.94" y2="23.85" gradientUnits="userSpaceOnUse"><stop offset="0" stop-color="#949ca1"/><stop offset="0.01" stop-color="#99a1a5"/><stop offset="0.12" stop-color="#c2c6c8"/><stop offset="0.2" stop-color="#dbddde"/><stop offset="0.25" stop-color="#e4e5e6"/><stop offset="0.75" stop-color="#e4e5e6"/><stop offset="0.8" stop-color="#dcdedf"/><stop offset="0.88" stop-color="#c6cacc"/><stop offset="0.97" stop-color="#a3aaae"/><stop offset="1" stop-color="#949ca1"/></linearGradient><linearGradient id="NHL_SHIELD_4_-_430" x1="44.97" y1="15.27" x2="96.38" y2="15.27" gradientUnits="userSpaceOnUse"><stop offset="0.25" stop-color="#fff"/><stop offset="0.34" stop-color="#fafafa"/><stop offset="0.45" stop-color="#ebeced"/><stop offset="0.57" stop-color="#d2d5d7"/><stop offset="0.7" stop-color="#afb5b9"/><stop offset="0.79" stop-color="#949ca1"/></linearGradient><linearGradient id="NHL_SHIELD_3_-_430" x1="96.38" y1="141.5" x2="177.96" y2="141.5" gradientUnits="userSpaceOnUse"><stop offset="0.2" stop-color="#fff"/><stop offset="0.33" stop-color="#fafbfb"/><stop offset="0.47" stop-color="#edeeef"/><stop offset="0.63" stop-color="#d7dadc"/><stop offset="0.79" stop-color="#b8bdc0"/><stop offset="0.93" stop-color="#949ca1"/></linearGradient><linearGradient id="NHL_SHIELD_2_-_430" x1="96.38" y1="15.27" x2="147.79" y2="15.27" xlink:href="#NHL_SHIELD_4_-_430"/><linearGradient id="NHL_SHIELD_1_-_430" x1="14.89" y1="21.94" x2="47.55" y2="21.94" gradientUnits="userSpaceOnUse"><stop offset="0.39" stop-color="#fff"/><stop offset="0.47" stop-color="#fafafa"/><stop offset="0.57" stop-color="#ebeced"/><stop offset="0.68" stop-color="#d2d5d7"/><stop offset="0.79" stop-color="#afb5b9"/><stop offset="0.87" stop-color="#949ca1"/></linearGradient></defs><title>NHL_200x200</title><g id="NHL"><path class="cls-1" d="M20.53,116.89c0-17.5,8.21-24.15,9.89-40.74-2.31,14.53-11.94,26.44-11.94,40.74A52,52,0,0,0,20.61,132c6.06,20.13,24.06,31.33,41.49,35.74C35.25,160.9,20.53,138.36,20.53,116.89Z"/><path class="cls-1" d="M168.87,93.94C165.61,86,162,78.87,162,70.07c0,21.3,10.18,27.32,10.18,46.82,0,21.47-14.71,44-41.57,50.8,24.22-6.12,43.48-23.85,43.48-50.8C174.13,107.76,171.61,100.58,168.87,93.94Z"/><path class="cls-2" d="M165.25,32c-5.5-1.62-9.5-5.77-11.9-12.33L147.79,4.43l-2.59,9.64C150.48,37.74,170,39.44,170,39.44l7.91-3.71Z"/><path class="cls-2" d="M73.32,118.23,63.13,102.61l-11.32,8.5a4.08,4.08,0,0,1,4,4.27v29.4l8-6V118l9.11,14,8.44-6.34V89l-8,6Z"/><path class="cls-2" d="M105.72,84.17l-9,6.77V77.4L84.53,86.54a4.07,4.07,0,0,1,4,4.26v29.41L96.7,114v-13.4l9-6.77v13.41l7.81-5.87V64.76l-7.81,5.87Z"/><path class="cls-2" d="M128.56,80.77V53.48l-12.18,9.14a4.08,4.08,0,0,1,4,4.26V96.29l22.66-17a46.43,46.43,0,0,1,0-9.35Z"/><path class="cls-3" d="M25,70.11c0,20.81-10.2,24.94-10.2,46.78A55.25,55.25,0,0,0,18,135.51,11.88,11.88,0,0,1,20.61,132a52,52,0,0,1-2.13-15.06c0-14.3,9.63-26.21,11.94-40.74a60.5,60.5,0,0,0,.3-6.08c0-16.6-7.92-30.63-7.92-30.63l-7.91-3.71,5.36,12.18A55,55,0,0,1,25,70.11Z"/><path class="cls-4" d="M162,70.07c0,8.8,3.57,16,6.83,23.87l4.26-.14c-2.64-6.61-5.38-12.91-5.38-23.69a55.11,55.11,0,0,1,4.75-22.2l5.37-12.18L170,39.44S162,53.47,162,70.07Z"/><path class="cls-5" d="M90.15,174.08c-6.48-2.34-15.29-3.16-28.05-6.39C44.67,163.28,26.67,152.08,20.61,132A11.88,11.88,0,0,0,18,135.51c6.87,19.41,24.09,33,42.7,37.82,11.91,3,17.47,3.31,26.35,5.79,1.15,1.22,9.36,10.09,9.36,10.09v-8.5S91,174.86,90.15,174.08Z"/><path class="cls-6" d="M63.53,162.06c14.2,3.6,23.49,4,29.72,7,0,0,2.27,2.08,3.13,3,.86-1,3.13-3,3.13-3,6.23-3,15.51-3.42,29.72-7,17.93-4.55,37.26-20.35,37.26-45.17,0-17.76-10.19-24.27-10.19-46.82a67.31,67.31,0,0,1,5.75-26.91s-13.25-2.67-19.43-19.45c0,0-8.8,8.21-20.93,8.21-15.21,0-25.31-10.68-25.31-10.68s-10.1,10.68-25.3,10.68c-12.15,0-20.94-8.21-20.94-8.21C44,40.49,30.71,43.16,30.71,43.16a67.41,67.41,0,0,1,5.74,26.91c0,22.55-10.19,29.06-10.19,46.82C26.26,141.71,45.6,157.51,63.53,162.06ZM160,116.89c0,21.06-16.78,34.9-32.37,38.86-11.25,2.86-25,4.34-29.16,6.7a18.89,18.89,0,0,0-2.08,1.91,20,20,0,0,0-2.08-1.91c-4.16-2.36-17.92-3.84-29.17-6.7-.42-.11-.85-.22-1.27-.35l88.5-66.46C155.39,99.49,160,106.39,160,116.89Zm-6.3-70.17a74.48,74.48,0,0,0-3.89,23.35,70.75,70.75,0,0,0,.78,10.75l-95,71.31c-11.9-6.11-22.31-17.85-22.83-34L141.92,36.21A35.73,35.73,0,0,0,153.69,46.72ZM43,70.07a74.77,74.77,0,0,0-3.89-23.35A36.26,36.26,0,0,0,52.7,33.37a37.88,37.88,0,0,0,18.38,5.06c11.35,0,20.22-5,25.3-8.69a43.15,43.15,0,0,0,25.31,8.69,33.87,33.87,0,0,0,5.22-.41l-93,69.81C36.62,97.33,43,88.63,43,70.07Z"/><path class="cls-7" d="M71.08,26.1c15.26,0,25.3-13,25.3-13V5l-8,7.91a25.85,25.85,0,0,1-17.31,7.37c-5,0-9.63-2.21-13.7-5.59L45,4.43l2.58,9.64S59.23,26.1,71.08,26.1Z"/><path class="cls-8" d="M174.13,116.89c0,27-19.26,44.68-43.48,50.8-12.75,3.23-21.56,4.05-28.05,6.39-.83.78-6.22,6.63-6.22,6.63v8.5s8.2-8.87,9.36-10.09c8.88-2.48,14.43-2.78,26.35-5.79,24.1-6.2,45.87-27.2,45.87-56.44,0-10.53-2.38-16.94-4.83-23.09l-4.26.14C171.61,100.58,174.13,107.76,174.13,116.89Z"/><path class="cls-9" d="M121.69,26.1c11.83,0,23.51-12,23.51-12l2.59-9.64L135.38,14.7c-4.08,3.38-8.74,5.59-13.69,5.59a25.81,25.81,0,0,1-17.32-7.37L96.38,5v8.12S106.42,26.1,121.69,26.1Z"/><path class="cls-10" d="M47.55,14.07,45,4.43,39.4,19.67C37,26.23,33,30.38,27.51,32L14.89,35.73l7.91,3.71S42.27,37.74,47.55,14.07Z"/><path class="cls-11" d="M22.49,70.11c0,20-10.2,24.56-10.2,46.78,0,32,24.75,53,47.75,58.88,11.63,2.82,15.13,3,25.63,5.6L96.38,192.9l10.71-11.53c10.49-2.58,14-2.78,25.62-5.6,23-5.92,47.76-26.87,47.76-58.88,0-22.22-10.21-26.77-10.21-46.78a52.28,52.28,0,0,1,4.54-21.19l6.52-14.8L166,29.59c-4.69-1.38-8.13-5-10.24-10.78L148.92.22,133.78,12.76c-4,3.33-8.08,5-12.09,5a23.37,23.37,0,0,1-15.55-6.65L96.38,1.48l-9.76,9.65a23.36,23.36,0,0,1-15.54,6.65c-4,0-8.09-1.69-12.1-5L43.83.22,37,18.81c-2.1,5.77-5.55,9.4-10.24,10.78L11.43,34.12,18,48.92A52.28,52.28,0,0,1,22.49,70.11Zm5-38.11C33,30.38,37,26.23,39.4,19.67L45,4.43,57.38,14.7c4.07,3.38,8.74,5.59,13.7,5.59a25.85,25.85,0,0,0,17.31-7.37l8-7.91,8,7.91a25.81,25.81,0,0,0,17.32,7.37c5,0,9.61-2.21,13.69-5.59L147.79,4.43l5.56,15.24c2.4,6.56,6.4,10.71,11.9,12.33l12.62,3.73L172.5,47.91a55.11,55.11,0,0,0-4.75,22.2c0,10.78,2.74,17.08,5.38,23.69,2.45,6.15,4.83,12.56,4.83,23.09,0,29.24-21.77,50.24-45.87,56.44-11.92,3-17.47,3.31-26.35,5.79-1.16,1.22-9.36,10.09-9.36,10.09s-8.21-8.87-9.36-10.09c-8.88-2.48-14.44-2.78-26.35-5.79-18.61-4.79-35.83-18.41-42.7-37.82a55.25,55.25,0,0,1-3.17-18.62c0-21.84,10.2-26,10.2-46.78a55,55,0,0,0-4.75-22.2L14.89,35.73Z"/><path class="cls-11" d="M63.86,155.4c.42.13.85.24,1.27.35,11.25,2.86,25,4.34,29.17,6.7a20,20,0,0,1,2.08,1.91,18.89,18.89,0,0,1,2.08-1.91c4.16-2.36,17.91-3.84,29.16-6.7,15.59-4,32.37-17.8,32.37-38.86,0-10.5-4.6-17.4-7.63-27.95Z"/><path class="cls-11" d="M33.94,107.83l93-69.81a33.87,33.87,0,0,1-5.22.41,43.15,43.15,0,0,1-25.31-8.69c-5.08,3.73-13.95,8.69-25.3,8.69A37.88,37.88,0,0,1,52.7,33.37,36.26,36.26,0,0,1,39.07,46.72,74.77,74.77,0,0,1,43,70.07C43,88.63,36.62,97.33,33.94,107.83Z"/><path class="cls-11" d="M55.62,152.13l95-71.31a70.75,70.75,0,0,1-.78-10.75,74.48,74.48,0,0,1,3.89-23.35,35.73,35.73,0,0,1-11.77-10.51L32.79,118.16C33.31,134.28,43.72,146,55.62,152.13Zm72.94-98.65V80.77L143,69.92a46.43,46.43,0,0,0,0,9.35l-22.66,17V66.88a4.08,4.08,0,0,0-4-4.26ZM96.7,77.4V90.94l9-6.77V70.63l7.81-5.87v36.65l-7.81,5.87V93.87l-9,6.77V114l-8.21,6.17V90.8a4.07,4.07,0,0,0-4-4.26ZM63.13,102.61l10.19,15.62V95l8-6V125.6l-8.44,6.34-9.11-14v20.79l-8,6v-29.4a4.08,4.08,0,0,0-4-4.27Z"/><path class="cls-11" d="M30.42,76.15c-1.68,16.59-9.89,23.24-9.89,40.74,0,21.47,14.72,44,41.57,50.8,12.76,3.23,21.57,4.05,28.05,6.39.83.78,6.23,6.63,6.23,6.63s5.39-5.85,6.22-6.63c6.49-2.34,15.3-3.16,28.05-6.39,26.86-6.79,41.57-29.33,41.57-50.8,0-19.5-10.18-25.52-10.18-46.82,0-16.6,7.92-30.63,7.92-30.63s-19.48-1.7-24.76-25.37c0,0-11.68,12-23.51,12-15.27,0-25.31-13-25.31-13s-10,13-25.3,13c-11.85,0-23.53-12-23.53-12C42.27,37.74,22.8,39.44,22.8,39.44s7.92,14,7.92,30.63A60.5,60.5,0,0,1,30.42,76.15Zm.29-33S44,40.49,50.14,23.71c0,0,8.79,8.21,20.94,8.21,15.2,0,25.3-10.68,25.3-10.68s10.1,10.68,25.31,10.68c12.13,0,20.93-8.21,20.93-8.21,6.18,16.78,19.43,19.45,19.43,19.45a67.31,67.31,0,0,0-5.75,26.91c0,22.55,10.19,29.06,10.19,46.82,0,24.82-19.33,40.62-37.26,45.17-14.21,3.6-23.49,4-29.72,7,0,0-2.27,2.08-3.13,3-.86-1-3.13-3-3.13-3-6.23-3-15.52-3.42-29.72-7-17.93-4.55-37.27-20.35-37.27-45.17,0-17.76,10.19-24.27,10.19-46.82A67.41,67.41,0,0,0,30.71,43.16Z"/><path class="cls-11" d="M157.8,174.19a6.57,6.57,0,1,0,6.57-6.57A6.57,6.57,0,0,0,157.8,174.19Zm11.72,0a5.16,5.16,0,1,1-5.15-5.16A5.15,5.15,0,0,1,169.52,174.19Z"/><path class="cls-11" d="M161.67,177.94h1.41v-3.05h1l1.42,3.05h1.56l-1.49-3.18a2.22,2.22,0,0,0-.74-4.32h-3.17Zm1.41-6.09h1.76a.82.82,0,1,1,0,1.64h-1.76Z"/></g></svg>